<svg xmlns="http://www.w3.org/2000/svg" width="20" height="20" fill="none" viewBox="0 0 20 20"><g clip-path="url(#clip0_4179_2451)"><path fill="#455560" d="M14.167 0a.833.833 0 0 0-.834.833c0 2.458-2.152 3.334-4.166 3.334H3.333A3.333 3.333 0 0 0 0 7.5v1.667a3.316 3.316 0 0 0 1.262 2.59l2.976 6.644A2.694 2.694 0 0 0 6.7 20a2.485 2.485 0 0 0 2.267-3.5l-1.833-4h2.034c2.014 0 4.166.876 4.166 3.333a.833.833 0 0 0 1.667 0v-15A.833.833 0 0 0 14.167 0Zm-6.72 17.183a.82.82 0 0 1-.748 1.15 1.026 1.026 0 0 1-.938-.611L3.42 12.5h1.878l2.148 4.683Zm5.886-5.016a6.436 6.436 0 0 0-4.166-1.334H3.333a1.667 1.667 0 0 1-1.666-1.666V7.5a1.667 1.667 0 0 1 1.666-1.667h5.834a6.436 6.436 0 0 0 4.166-1.329v7.663Z"/><path fill="#ED1B2E" d="M19.718 13.134a.834.834 0 0 0 .199-.257v-.005a.833.833 0 0 0-.373-1.114l-1.667-.833a.833.833 0 1 0-.745 1.492l1.667.833a.832.832 0 0 0 .919-.116ZM16.673 5.063a.832.832 0 0 0 1.204.687l1.667-.833a.834.834 0 0 0-.745-1.492l-1.667.833a.833.833 0 0 0-.46.805ZM16.911 7.744a.833.833 0 0 0 .59 1.423h1.666a.833.833 0 1 0 0-1.667H17.5a.833.833 0 0 0-.589.244Z"/></g><defs><clipPath id="clip0_4179_2451"><path fill="#fff" d="M0 0h20v20H0z"/></clipPath></defs></svg>