<svg xmlns="http://www.w3.org/2000/svg" width="20" height="20" fill="none" viewBox="0 0 20 20"><g clip-path="url(#clip0_4179_2440)"><path fill="#455560" d="M15.834 0h-4.167a.833.833 0 0 0 0 1.667h4.167c.371.001.737.087 1.07.25L.245 18.577a.833.833 0 1 0 1.179 1.179l16.66-16.66c.164.333.25.7.25 1.07v4.167a.833.833 0 1 0 1.668 0V4.167A4.172 4.172 0 0 0 15.833 0Z"/><path fill="#ED1B2E" d="M5 8.333a3.333 3.333 0 1 0 0-6.666 3.333 3.333 0 0 0 0 6.666Zm0-5a1.667 1.667 0 1 1 0 3.334 1.667 1.667 0 0 1 0-3.334ZM15 11.667a3.334 3.334 0 1 0 0 6.668 3.334 3.334 0 0 0 0-6.668Zm0 5a1.667 1.667 0 1 1 0-3.334 1.667 1.667 0 0 1 0 3.334Z"/></g><defs><clipPath id="clip0_4179_2440"><path fill="#fff" d="M0 0h20v20H0z"/></clipPath></defs></svg>