<svg xmlns="http://www.w3.org/2000/svg" width="20" height="20" fill="none" viewBox="0 0 20 20"><g clip-path="url(#clip0_4179_2437)"><path fill="#ED1B2E" d="M18.75 3.313h-2.572a.833.833 0 0 0-.589 1.423l.905.905-2.988 2.987a.853.853 0 0 1-1.18 0l-.14-.142a2.56 2.56 0 0 0-3.537 0l-4.25 4.25a.836.836 0 1 0 1.185 1.18l4.25-4.25a.852.852 0 0 1 1.179 0l.141.143a2.56 2.56 0 0 0 3.536 0l2.989-2.988.905.905A.833.833 0 0 0 20 7.135V4.563a1.25 1.25 0 0 0-1.25-1.25Z"/><path fill="#455560" d="M19.167 18.313h-15a2.5 2.5 0 0 1-2.5-2.5V.833A.833.833 0 0 0 0 .833v14.98a4.172 4.172 0 0 0 4.167 4.167h15a.833.833 0 0 0 0-1.667Z"/></g><defs><clipPath id="clip0_4179_2437"><path fill="#fff" d="M0 0h20v20H0z"/></clipPath></defs></svg>