<svg xmlns="http://www.w3.org/2000/svg" width="20" height="20" fill="none" viewBox="0 0 20 20"><g clip-path="url(#clip0_4179_2330)"><path fill="#455560" d="M17.048 3.796 10.405.106a.833.833 0 0 0-.81 0l-6.642 3.69A2.5 2.5 0 0 0 1.667 5.98v9.852A4.172 4.172 0 0 0 5.834 20h8.333a4.172 4.172 0 0 0 4.167-4.167V5.981a2.501 2.501 0 0 0-1.286-2.185Zm-.381 12.037a2.5 2.5 0 0 1-2.5 2.5H5.834a2.5 2.5 0 0 1-2.5-2.5V5.981a.833.833 0 0 1 .429-.73L10 1.786 16.24 5.25a.833.833 0 0 1 .428.73v9.853Z"/><path fill="#ED1B2E" d="M10 7.084a1.25 1.25 0 1 0 0-2.5 1.25 1.25 0 0 0 0 2.5Z"/></g><defs><clipPath id="clip0_4179_2330"><path fill="#fff" d="M0 0h20v20H0z"/></clipPath></defs></svg>